<svg width="24" height="24" viewBox="0 0 24 24" xmlns="http://www.w3.org/2000/svg">
    <style type="text/css">
        .st0{fill:#010101;}
    </style>
    <path class="st0"
          d="M23 2H1C0.448 2 0 2.448 0 3V17C0 17.552 0.448 18 1 18H8.5C8.5 18 8.393 21 7 21V22H17V21C15.607 21 15.5 18 15.5 18H23C23.552 18 24 17.552 24 17V3C24 2.448 23.552 2 23 2ZM12 17C11.724 17 11.5 16.776 11.5 16.5C11.5 16.224 11.724 16 12 16C12.276 16 12.5 16.224 12.5 16.5C12.5 16.776 12.276 17 12 17ZM22 15H2V4H22V15Z"
          fill="#007aff"/>
</svg>
