<?xml version="1.0" encoding="utf-8"?>
<!-- Generator: Adobe Illustrator 22.1.0, SVG Export Plug-In . SVG Version: 6.00 Build 0)  -->
<svg version="1.1" id="Calque_1" xmlns="http://www.w3.org/2000/svg" xmlns:xlink="http://www.w3.org/1999/xlink" x="0px" y="0px"
	 width="32px" height="32px" viewBox="0 0 32 32" style="enable-background:new 0 0 32 32;" xml:space="preserve">
<style type="text/css">
	.st0{fill:#010101;}
	.st1{fill:#F5AF23;}
</style>
<polygon class="st0" points="7,2 2,7 7,7 "/>
<path class="st0" d="M4,21c0-3.9,3.1-7,7-7c0.3,0,0.7,0,1,0.1V11l6-6V2H8v6H2v16.2l2.1-2.1C4,21.7,4,21.4,4,21z"/>
<polygon class="st0" points="19,12 19,7 14,12 "/>
<path class="st0" d="M20,7v6h-6v1.7c2.4,1.1,4,3.5,4,6.3s-1.6,5.2-4,6.3V30h16V7H20z"/>
<path class="st1" d="M11,16c-2.8,0-5,2.2-5,5c0,0.6,0.1,1.2,0.3,1.7L2,27v3h1l2-2h1l1-1h1l1.3-1.3C9.8,25.9,10.4,26,11,26
	c2.8,0,5-2.2,5-5S13.8,16,11,16z M12,21.5c-0.9,0-1.5-0.7-1.5-1.5s0.7-1.5,1.5-1.5s1.5,0.7,1.5,1.5S12.9,21.5,12,21.5z"/>
</svg>
