<?xml version="1.0" encoding="utf-8"?>
<!-- Generator: Adobe Illustrator 23.0.2, SVG Export Plug-In . SVG Version: 6.00 Build 0)  -->
<svg version="1.1" id="Calque_1" xmlns="http://www.w3.org/2000/svg" xmlns:xlink="http://www.w3.org/1999/xlink" x="0px" y="0px"
	 width="32px" height="32px" viewBox="0 0 32 32" style="enable-background:new 0 0 32 32;" xml:space="preserve">
<style type="text/css">
	.st0{fill:#010101;}
	.st1{fill:#F5AF23;}
</style>
<polygon class="st0" points="7,2 2,7 7,7 "/>
<polygon class="st0" points="19,12 19,7 14,12 "/>
<path class="st0" d="M8,2v6H2v5.7C3.1,12.1,4.9,11,7,11s3.9,1.1,5,2.7V11l6-6V2H8z"/>
<circle class="st1" cx="7" cy="17" r="4"/>
<path class="st0" d="M20,7v6h-6v6.4c1.2-2,3.5-3.4,6-3.4c3.9,0,7,3.1,7,7s-3.1,7-7,7h10V7H20z"/>
<path class="st1" d="M9,28.2l3.3-3.3l0-0.1C12.1,23.1,11.4,22,10,22H8l-1,3l-1-3H4c-1.4,0-2.1,1.1-2.3,2.7L1.2,27
	c-0.1,0.6,0.5,1,1.1,1H3l0.4,3.3c0,0.5,0.4,0.7,0.9,0.7H9V28.2z"/>
<path class="st1" d="M20,18c-2.8,0-5,2.2-5,5c0,0.6,0.1,1.2,0.3,1.7L11,29v3h1l2-2h1l1-1h1l1.3-1.3c0.5,0.2,1.1,0.3,1.7,0.3
	c2.8,0,5-2.2,5-5S22.8,18,20,18z M21,23.5c-0.9,0-1.5-0.7-1.5-1.5s0.7-1.5,1.5-1.5s1.5,0.7,1.5,1.5S21.9,23.5,21,23.5z"/>
</svg>
