<?xml version="1.0" encoding="utf-8"?>
<!-- Generator: Adobe Illustrator 22.1.0, SVG Export Plug-In . SVG Version: 6.00 Build 0)  -->
<svg version="1.1" id="Calque_1" xmlns="http://www.w3.org/2000/svg" xmlns:xlink="http://www.w3.org/1999/xlink" x="0px" y="0px"
	 width="32px" height="32px" viewBox="0 0 32 32" style="enable-background:new 0 0 32 32;" xml:space="preserve">
<style type="text/css">
	.st0{fill:#010101;}
	.st1{fill:#F5AF23;}
</style>
<polygon class="st0" points="7,2 2,7 7,7 "/>
<path class="st0" d="M4.1,18.5C3.4,17.5,3,16.3,3,15c0-3.3,2.7-6,6-6c1.4,0,2.7,0.5,3.7,1.3L18,5V2H8v6H2v13.1
	C2.4,19.8,3.2,18.9,4.1,18.5z"/>
<path class="st0" d="M19,12V7l-4.9,4.9c0,0,0,0.1,0.1,0.1H19z"/>
<path class="st0" d="M30,7H20v6h-5.4c0.2,0.6,0.4,1.3,0.4,2c0,1.2-0.4,2.3-1,3.3v0.3c1.1,0.6,2,1.8,2.3,3.8l0.5,2.4
	c0.1,0.8-0.1,1.6-0.7,2.2c-0.3,0.4-0.8,0.7-1.3,0.9l-0.2,1.8c0,0.1,0,0.3-0.1,0.4H30V7z"/>
<path class="st1" d="M3.2,25l0.5-2.3C3.9,21.1,4.6,20,6,20h2l1,3l1-3h2c1.4,0,2.1,1.1,2.3,2.7l0.5,2.3c0.1,0.6-0.5,1-1.1,1H13
	l-0.4,3.3c0,0.5-0.4,0.7-0.9,0.7H6.3c-0.5,0-0.9-0.2-0.9-0.7L5,26H4.3C3.7,26,3.1,25.6,3.2,25z"/>
<circle class="st1" cx="9" cy="15" r="4"/>
</svg>
