<?xml version="1.0" encoding="utf-8"?>
<!-- Generator: Adobe Illustrator 22.1.0, SVG Export Plug-In . SVG Version: 6.00 Build 0)  -->
<svg version="1.1" id="Calque_1" xmlns="http://www.w3.org/2000/svg" xmlns:xlink="http://www.w3.org/1999/xlink" x="0px" y="0px"
	 width="32px" height="32px" viewBox="0 0 32 32" style="enable-background:new 0 0 32 32;" xml:space="preserve">
<style type="text/css">
	.st0{fill:#010101;}
	.st1{fill:#F5AF23;}
</style>
<polygon class="st0" points="7,2 2,7 7,7 "/>
<polygon class="st0" points="12,14 12,11 18,5 18,2 8,2 8,8 2,8 2,16 4,14 "/>
<polygon class="st0" points="19,12 19,7 14,12 "/>
<polygon class="st0" points="20,7 20,13 14,13 14,14 14,30 30,30 30,7 "/>
<polygon class="st1" points="5,16 2,19 5,19 "/>
<path class="st1" d="M12,16H6v4H2v10h10V16z"/>
</svg>
