<?xml version="1.0" encoding="utf-8"?>
<!-- Generator: Adobe Illustrator 23.0.2, SVG Export Plug-In . SVG Version: 6.00 Build 0)  -->
<svg version="1.1" id="Layer_1" xmlns="http://www.w3.org/2000/svg" xmlns:xlink="http://www.w3.org/1999/xlink" x="0px" y="0px"
	 width="32px" height="32px" viewBox="0 0 32 32" style="enable-background:new 0 0 32 32;" xml:space="preserve">
<style type="text/css">
	.st0{fill:#010101;}
	.st1{fill:#6AB934;}
</style>
<circle class="st0" cx="16" cy="8" r="6"/>
<path class="st0" d="M13,26.2l3.9-5.8l4.2,2.8l2.9-4.3C23.6,16.6,22,15,20,15h-2l-2,5l-2-5h-2c-2.1,0-3.7,1.7-4,4l-0.7,4.5
	C7.2,24.5,8.1,25,9,25h1l0.6,4c0.1,0.8,0.6,1,1.4,1h6.7L13,26.2z"/>
<polygon class="st1" points="27.7,16.8 21.6,25.9 17.4,23.1 15.8,25.6 22.4,30.1 30.2,18.4 "/>
</svg>
