<?xml version="1.0" encoding="utf-8"?>
<!-- Generator: Adobe Illustrator 23.0.2, SVG Export Plug-In . SVG Version: 6.00 Build 0)  -->
<svg version="1.1" id="Layer_1" xmlns="http://www.w3.org/2000/svg" xmlns:xlink="http://www.w3.org/1999/xlink" x="0px" y="0px"
	 width="32px" height="32px" viewBox="0 0 32 32" style="enable-background:new 0 0 32 32;" xml:space="preserve">
<style type="text/css">
	.st0{fill:#010101;}
</style>
<path class="st0" d="M16,2C8.3,2,2,8.3,2,16s6.3,14,14,14s14-6.3,14-14S23.7,2,16,2z M16,26c-1.4,0-2.5-1.1-2.5-2.5S14.6,21,16,21
	s2.5,1.1,2.5,2.5S17.4,26,16,26z M17.8,18.1l0,0.4c0,0.3-0.1,0.4-0.4,0.4l-2.7,0c-0.3,0-0.5-0.1-0.5-0.4l0-0.7
	c-0.2-3.4,4.3-3.6,4.1-6c-0.1-1.1-1-1.7-2.4-1.7c-1.5,0-2.4,0.8-2.3,1.8l0,0.3c0,0.3-0.1,0.4-0.4,0.4l-2.8-0.1
	c-0.3,0-0.4-0.1-0.5-0.3l0-0.3c-0.2-3,2.1-5,5.8-5c3.6,0,6,1.9,6.2,4.8C22.3,15.9,17.7,15.9,17.8,18.1z"/>
</svg>
