<svg width="24" height="24" viewBox="0 0 24 24" fill="none" xmlns="http://www.w3.org/2000/svg">
    <path d="M19 9H18V7C18 3.686 15.314 1 12 1C8.686 1 6 3.686 6 7V9H5C4.448 9 4 9.448 4 10V21C4 21.552 4.448 22 5 22H19C19.552 22 20 21.552 20 21V10C20 9.448 19.552 9 19 9ZM13 15.723V18H11V15.723C10.405 15.377 10 14.739 10 14C10 12.895 10.895 12 12 12C13.105 12 14 12.895 14 14C14 14.738 13.595 15.376 13 15.723ZM8 7C8 4.791 9.791 3 12 3C14.209 3 16 4.791 16 7V9H8V7Z"
          fill="#007aff"/>
</svg>
