<?xml version="1.0" encoding="utf-8"?>
<!-- Generator: Adobe Illustrator 23.0.2, SVG Export Plug-In . SVG Version: 6.00 Build 0)  -->
<svg version="1.1" id="Layer_1" xmlns="http://www.w3.org/2000/svg" xmlns:xlink="http://www.w3.org/1999/xlink" x="0px" y="0px"
	 width="32px" height="32px" viewBox="0 0 32 32" style="enable-background:new 0 0 32 32;" xml:space="preserve">
<style type="text/css">
	.st0{fill:#010101;}
</style>
<path class="st0" d="M14,26L14,26l2-2l0,0v-2h2v-1c0-1.9,0.8-3.6,2-4.9l0.1-0.1c1.3-1.2,3-2,4.9-2h-5v-2h6v2h-1c1.1,0,2.1,0.3,3,0.7
	V2H2v20h12v2h-2v2H2l0,2l10,0v2h2V26z M20,4h6v2h-6V4z M20,8h6v2h-6V8z M12,4h6v2h-6V4z M12,8h6v2h-6V8z M12,12h6v2h-6V12z M10,18H4
	v-2h6V18z M10,14H4v-2h6V14z M10,10H4V8h6V10z M10,6H4V4h6V6z M12,18v-2h6v2H12z"/>
<path class="st0" d="M25,16c-2.8,0-5,2.2-5,5c0,0.6,0.1,1.2,0.3,1.7L16,27v3h1l2-2h1l1-1h1l1.3-1.3c0.5,0.2,1.1,0.3,1.7,0.3
	c2.8,0,5-2.2,5-5S27.8,16,25,16z M26,21.5c-0.9,0-1.5-0.7-1.5-1.5s0.7-1.5,1.5-1.5s1.5,0.7,1.5,1.5S26.9,21.5,26,21.5z"/>
</svg>
