<?xml version="1.0" encoding="utf-8"?>
<!-- Generator: Adobe Illustrator 23.0.1, SVG Export Plug-In . SVG Version: 6.00 Build 0)  -->
<svg version="1.1" id="Layer_1" xmlns="http://www.w3.org/2000/svg" xmlns:xlink="http://www.w3.org/1999/xlink" x="0px" y="0px"
	 width="32px" height="32px" viewBox="0 0 32 32" style="enable-background:new 0 0 32 32;" xml:space="preserve">
<style type="text/css">
	.st0{fill:#010101;}
	.st1{fill:#010101;}
</style>
<polygon class="st0" points="11,0 7.5,5.4 5.5,4.1 4.5,5.7 8,8 12.6,1.1 "/>
<polygon class="st0" points="11,11 7.5,16.4 5.5,15.1 4.5,16.7 8,19 12.6,12.1 "/>
<polygon class="st1" points="12,4 12,9 4,9 4,1 9,1 9,0 3,0 3,10 13,10 13,4 "/>
<polygon class="st1" points="12,15 12,20 4,20 4,12 9,12 9,11 3,11 3,21 13,21 13,15 "/>
<polygon class="st0" points="11,22 7.5,27.4 5.5,26.1 4.5,27.7 8,30 12.6,23.1 "/>
<polygon class="st1" points="12,26 12,31 4,31 4,23 9,23 9,22 3,22 3,32 13,32 13,26 "/>
<rect x="16" y="2" class="st1" width="14" height="2"/>
<rect x="16" y="13" class="st1" width="14" height="2"/>
<rect x="16" y="24" class="st1" width="14" height="2"/>
<rect x="16" y="6" class="st1" width="9" height="2"/>
<rect x="16" y="17" class="st1" width="9" height="2"/>
<rect x="16" y="28" class="st1" width="9" height="2"/>
</svg>
