<?xml version="1.0" encoding="utf-8"?>
<!-- Generator: Adobe Illustrator 23.0.1, SVG Export Plug-In . SVG Version: 6.00 Build 0)  -->
<svg version="1.1" id="Layer_1" xmlns="http://www.w3.org/2000/svg" xmlns:xlink="http://www.w3.org/1999/xlink" x="0px" y="0px"
	 width="32px" height="32px" viewBox="0 0 32 32" style="enable-background:new 0 0 32 32;" xml:space="preserve">
<style type="text/css">
	.st0{fill:#010101;}
	.st1{fill:#F5AF23;}
</style>
<path class="st0" d="M11,17l3.8,3.9c1.8-1.3,4-1.9,6.2-1.9c2.2,0,4.2,0.6,6,1.8V14h-2v-3c0-5-4-9-9-9s-9,4-9,9v3H5v14.7
	C5,29.4,5.6,30,6.4,30h2.9L11,17z M10,11c0-3.3,2.7-6,6-6s6,2.7,6,6v3H10V11z"/>
<path class="st1" d="M24.5,26.5c1,1,1.5,2.3,1.5,3.5h4c0-2.3-0.9-4.6-2.6-6.4c-3.5-3.5-9.2-3.5-12.7,0l-2.1-2.1L11.1,30l8.5-1.4
	l-2.1-2.1C19.4,24.5,22.6,24.5,24.5,26.5z"/>
</svg>
