<?xml version="1.0" encoding="utf-8"?>
<!-- Generator: Adobe Illustrator 23.0.2, SVG Export Plug-In . SVG Version: 6.00 Build 0)  -->
<svg version="1.1" id="Layer_1" xmlns="http://www.w3.org/2000/svg" xmlns:xlink="http://www.w3.org/1999/xlink" x="0px" y="0px"
	 width="32px" height="32px" viewBox="0 0 32 32" style="enable-background:new 0 0 32 32;" xml:space="preserve">
<style type="text/css">
	.st0{fill:#010101;}
</style>
<path class="st0" d="M19,22v-2c0-1.7,1.3-3,3-3s3,1.3,3,3h2c0-2.8-2.2-5-5-5s-5,2.2-5,5v2h-1v8h12v-8H19z M23,27h-2v-3h2V27z"/>
<circle class="st0" cx="14" cy="8" r="6"/>
<path class="st0" d="M11.7,15h-2c-2.1,0-3.7,1.7-4,4L5,23.5C4.9,24.5,5.8,25,6.7,25h1l0.6,4c0.1,0.8,0.6,1,1.4,1H14V20L11.7,15z"/>
</svg>
