<svg width="24" height="24" viewBox="0 0 24 24" fill="none" xmlns="http://www.w3.org/2000/svg">
    <path d="M17.368 11.801C17.262 10.779 16.37 10 15.306 10H8.694C7.629 10 6.738 10.779 6.632 11.801L6.01 16.801C5.888 17.978 6.847 19 8.073 19H8.5L9 22C9.072 22.568 9.448 23 10 23H14C14.552 23 14.928 22.568 15 22L15.5 19H15.927C17.153 19 18.111 17.978 17.989 16.801L17.368 11.801ZM12 1C14.208 1 16 2.792 16 5C16 7.208 14.208 9 12 9C9.792 9 8 7.208 8 5C8 2.792 9.792 1 12 1Z"
          fill="black"/>
</svg>
