<?xml version="1.0" encoding="utf-8"?>
<!-- Generator: Adobe Illustrator 23.0.2, SVG Export Plug-In . SVG Version: 6.00 Build 0)  -->
<svg version="1.1" id="Layer_1" xmlns="http://www.w3.org/2000/svg" xmlns:xlink="http://www.w3.org/1999/xlink" x="0px" y="0px"
	 width="32px" height="32px" viewBox="0 0 32 32" style="enable-background:new 0 0 32 32;" xml:space="preserve">
<style type="text/css">
	.st0{fill:#010101;}
	.st1{fill:#F20000;}
</style>
<circle class="st0" cx="16" cy="8" r="6"/>
<path class="st0" d="M22.5,18.2l1-1c-0.7-1.4-2-2.3-3.5-2.3h-0.8L22.5,18.2z"/>
<path class="st0" d="M14,26.7l4.2-4.2L14,18.2l0.9-0.9L14,15h-2c-2.1,0-3.7,1.7-4,4l-0.7,4.5C7.2,24.5,8.1,25,9,25h1l0.6,4
	c0.1,0.8,0.6,1,1.4,1h5.3L14,26.7z"/>
<polygon class="st1" points="26.7,16.8 22.5,21.1 18.2,16.8 16.8,18.2 21.1,22.5 16.8,26.7 18.2,28.1 22.5,23.9 26.7,28.1 
	28.1,26.7 23.9,22.5 28.1,18.2 "/>
</svg>
